<mxfile host="app.diagrams.net" modified="2024-06-03T07:35:49.498Z" agent="Mozilla/5.0 (Windows NT 10.0; Win64; x64) AppleWebKit/537.36 (KHTML, like Gecko) Chrome/123.0.0.0 Safari/537.36 OPR/109.0.0.0" etag="dZv2JcgjymhENLijVzhL" version="24.4.13" type="device">
  <diagram id="R2lEEEUBdFMjLlhIrx00" name="Page-1">
    <mxGraphModel dx="1611" dy="739" grid="1" gridSize="10" guides="1" tooltips="1" connect="1" arrows="1" fold="1" page="1" pageScale="1" pageWidth="1100" pageHeight="850" math="0" shadow="0" extFonts="Permanent Marker^https://fonts.googleapis.com/css?family=Permanent+Marker">
      <root>
        <mxCell id="0" />
        <mxCell id="1" parent="0" />
        <mxCell id="bLOG8VgDPljPzJII9fAq-17" style="edgeStyle=orthogonalEdgeStyle;rounded=0;orthogonalLoop=1;jettySize=auto;html=1;exitX=1;exitY=0.5;exitDx=0;exitDy=0;entryX=0;entryY=0.25;entryDx=0;entryDy=0;endArrow=none;endFill=0;" edge="1" parent="1" source="bLOG8VgDPljPzJII9fAq-18" target="bLOG8VgDPljPzJII9fAq-13">
          <mxGeometry relative="1" as="geometry" />
        </mxCell>
        <mxCell id="bLOG8VgDPljPzJII9fAq-12" value="&lt;font style=&quot;font-size: 15px;&quot;&gt;Partie&lt;/font&gt;" style="swimlane;whiteSpace=wrap;html=1;" vertex="1" parent="1">
          <mxGeometry x="-410" y="20" width="200" height="200" as="geometry" />
        </mxCell>
        <mxCell id="bLOG8VgDPljPzJII9fAq-25" value="&lt;u&gt;id : numAuto&lt;/u&gt;" style="text;html=1;align=left;verticalAlign=middle;whiteSpace=wrap;rounded=0;" vertex="1" parent="bLOG8VgDPljPzJII9fAq-12">
          <mxGeometry x="10" y="30" width="180" height="30" as="geometry" />
        </mxCell>
        <mxCell id="bLOG8VgDPljPzJII9fAq-26" value="codeUnique : int" style="text;html=1;align=left;verticalAlign=middle;whiteSpace=wrap;rounded=0;" vertex="1" parent="bLOG8VgDPljPzJII9fAq-12">
          <mxGeometry x="10" y="60" width="180" height="30" as="geometry" />
        </mxCell>
        <mxCell id="bLOG8VgDPljPzJII9fAq-40" value="score : int" style="text;html=1;align=left;verticalAlign=middle;whiteSpace=wrap;rounded=0;" vertex="1" parent="bLOG8VgDPljPzJII9fAq-12">
          <mxGeometry x="10" y="90" width="180" height="30" as="geometry" />
        </mxCell>
        <mxCell id="bLOG8VgDPljPzJII9fAq-13" value="&lt;font style=&quot;font-size: 15px;&quot;&gt;Cartes&lt;/font&gt;" style="swimlane;whiteSpace=wrap;html=1;" vertex="1" parent="1">
          <mxGeometry x="30" y="50" width="200" height="200" as="geometry" />
        </mxCell>
        <mxCell id="bLOG8VgDPljPzJII9fAq-30" value="&lt;u&gt;id : numAuto&lt;/u&gt;" style="text;html=1;align=left;verticalAlign=middle;whiteSpace=wrap;rounded=0;" vertex="1" parent="bLOG8VgDPljPzJII9fAq-13">
          <mxGeometry x="10" y="30" width="180" height="30" as="geometry" />
        </mxCell>
        <mxCell id="bLOG8VgDPljPzJII9fAq-31" value="contenu : string" style="text;html=1;align=left;verticalAlign=middle;whiteSpace=wrap;rounded=0;" vertex="1" parent="bLOG8VgDPljPzJII9fAq-13">
          <mxGeometry x="10" y="60" width="180" height="30" as="geometry" />
        </mxCell>
        <mxCell id="bLOG8VgDPljPzJII9fAq-14" value="&lt;font style=&quot;font-size: 15px;&quot;&gt;Indices&lt;/font&gt;" style="swimlane;whiteSpace=wrap;html=1;" vertex="1" parent="1">
          <mxGeometry x="-60" y="400" width="200" height="200" as="geometry" />
        </mxCell>
        <mxCell id="bLOG8VgDPljPzJII9fAq-33" value="&lt;u&gt;id : numAuto&lt;/u&gt;" style="text;html=1;align=left;verticalAlign=middle;whiteSpace=wrap;rounded=0;" vertex="1" parent="bLOG8VgDPljPzJII9fAq-14">
          <mxGeometry x="10" y="30" width="180" height="30" as="geometry" />
        </mxCell>
        <mxCell id="bLOG8VgDPljPzJII9fAq-49" value="contenu : string" style="text;html=1;align=left;verticalAlign=middle;whiteSpace=wrap;rounded=0;" vertex="1" parent="bLOG8VgDPljPzJII9fAq-14">
          <mxGeometry x="10" y="55" width="180" height="30" as="geometry" />
        </mxCell>
        <mxCell id="bLOG8VgDPljPzJII9fAq-50" value="nb_mot_corres : int" style="text;html=1;align=left;verticalAlign=middle;whiteSpace=wrap;rounded=0;" vertex="1" parent="bLOG8VgDPljPzJII9fAq-14">
          <mxGeometry x="10" y="80" width="180" height="30" as="geometry" />
        </mxCell>
        <mxCell id="bLOG8VgDPljPzJII9fAq-19" value="" style="edgeStyle=orthogonalEdgeStyle;rounded=0;orthogonalLoop=1;jettySize=auto;html=1;exitX=1;exitY=0.25;exitDx=0;exitDy=0;entryX=0;entryY=0.5;entryDx=0;entryDy=0;endArrow=none;endFill=0;" edge="1" parent="1" source="bLOG8VgDPljPzJII9fAq-12" target="bLOG8VgDPljPzJII9fAq-18">
          <mxGeometry relative="1" as="geometry">
            <mxPoint x="-210" y="70" as="sourcePoint" />
            <mxPoint x="30" y="100" as="targetPoint" />
          </mxGeometry>
        </mxCell>
        <mxCell id="bLOG8VgDPljPzJII9fAq-18" value="&lt;font style=&quot;font-size: 16px;&quot;&gt;Afficher&lt;/font&gt;" style="ellipse;whiteSpace=wrap;html=1;" vertex="1" parent="1">
          <mxGeometry x="-140" y="50" width="100" height="60" as="geometry" />
        </mxCell>
        <mxCell id="bLOG8VgDPljPzJII9fAq-20" value="" style="endArrow=none;html=1;rounded=0;entryX=0.5;entryY=1;entryDx=0;entryDy=0;exitX=0;exitY=0;exitDx=0;exitDy=0;" edge="1" parent="1" source="bLOG8VgDPljPzJII9fAq-22" target="bLOG8VgDPljPzJII9fAq-12">
          <mxGeometry width="50" height="50" relative="1" as="geometry">
            <mxPoint x="-170" y="320" as="sourcePoint" />
            <mxPoint x="-120" y="270" as="targetPoint" />
          </mxGeometry>
        </mxCell>
        <mxCell id="bLOG8VgDPljPzJII9fAq-21" value="" style="endArrow=none;html=1;rounded=0;entryX=1;entryY=1;entryDx=0;entryDy=0;exitX=0;exitY=0.5;exitDx=0;exitDy=0;" edge="1" parent="1" source="bLOG8VgDPljPzJII9fAq-14" target="bLOG8VgDPljPzJII9fAq-22">
          <mxGeometry width="50" height="50" relative="1" as="geometry">
            <mxPoint x="-130" y="540" as="sourcePoint" />
            <mxPoint x="-310" y="220" as="targetPoint" />
          </mxGeometry>
        </mxCell>
        <mxCell id="bLOG8VgDPljPzJII9fAq-22" value="&lt;font style=&quot;font-size: 16px;&quot;&gt;GÃ¨re&lt;/font&gt;" style="ellipse;whiteSpace=wrap;html=1;" vertex="1" parent="1">
          <mxGeometry x="-270" y="290" width="100" height="60" as="geometry" />
        </mxCell>
        <mxCell id="bLOG8VgDPljPzJII9fAq-35" style="edgeStyle=orthogonalEdgeStyle;rounded=0;orthogonalLoop=1;jettySize=auto;html=1;exitX=1;exitY=0.5;exitDx=0;exitDy=0;entryX=0;entryY=0.5;entryDx=0;entryDy=0;endArrow=none;endFill=0;" edge="1" parent="1" source="bLOG8VgDPljPzJII9fAq-36" target="bLOG8VgDPljPzJII9fAq-12">
          <mxGeometry relative="1" as="geometry" />
        </mxCell>
        <mxCell id="bLOG8VgDPljPzJII9fAq-34" value="Joueurs" style="swimlane;whiteSpace=wrap;html=1;" vertex="1" parent="1">
          <mxGeometry x="-900" y="70" width="200" height="200" as="geometry" />
        </mxCell>
        <mxCell id="bLOG8VgDPljPzJII9fAq-38" value="&lt;u&gt;id : numAuto&lt;/u&gt;" style="text;html=1;align=left;verticalAlign=middle;whiteSpace=wrap;rounded=0;" vertex="1" parent="bLOG8VgDPljPzJII9fAq-34">
          <mxGeometry x="10" y="30" width="180" height="30" as="geometry" />
        </mxCell>
        <mxCell id="bLOG8VgDPljPzJII9fAq-39" value="&amp;nbsp;nom : string" style="text;html=1;align=left;verticalAlign=middle;whiteSpace=wrap;rounded=0;" vertex="1" parent="bLOG8VgDPljPzJII9fAq-34">
          <mxGeometry x="10" y="60" width="180" height="30" as="geometry" />
        </mxCell>
        <mxCell id="bLOG8VgDPljPzJII9fAq-37" value="" style="edgeStyle=orthogonalEdgeStyle;rounded=0;orthogonalLoop=1;jettySize=auto;html=1;exitX=1;exitY=0.25;exitDx=0;exitDy=0;entryX=0;entryY=0.5;entryDx=0;entryDy=0;endArrow=none;endFill=0;" edge="1" parent="1" source="bLOG8VgDPljPzJII9fAq-34" target="bLOG8VgDPljPzJII9fAq-36">
          <mxGeometry relative="1" as="geometry">
            <mxPoint x="-620" y="210" as="sourcePoint" />
            <mxPoint x="-410" y="120" as="targetPoint" />
          </mxGeometry>
        </mxCell>
        <mxCell id="bLOG8VgDPljPzJII9fAq-36" value="&lt;font style=&quot;font-size: 16px;&quot;&gt;Participe&lt;/font&gt;" style="ellipse;whiteSpace=wrap;html=1;" vertex="1" parent="1">
          <mxGeometry x="-600" y="90" width="90" height="60" as="geometry" />
        </mxCell>
        <mxCell id="bLOG8VgDPljPzJII9fAq-41" value="0..N" style="text;html=1;align=center;verticalAlign=middle;whiteSpace=wrap;rounded=0;" vertex="1" parent="1">
          <mxGeometry x="-350" y="220" width="60" height="30" as="geometry" />
        </mxCell>
        <mxCell id="bLOG8VgDPljPzJII9fAq-42" value="1..1" style="text;html=1;align=center;verticalAlign=middle;whiteSpace=wrap;rounded=0;" vertex="1" parent="1">
          <mxGeometry x="-120" y="485" width="60" height="30" as="geometry" />
        </mxCell>
        <mxCell id="bLOG8VgDPljPzJII9fAq-44" value="1..1" style="text;html=1;align=center;verticalAlign=middle;whiteSpace=wrap;rounded=0;" vertex="1" parent="1">
          <mxGeometry x="-30" y="100" width="60" height="30" as="geometry" />
        </mxCell>
        <mxCell id="bLOG8VgDPljPzJII9fAq-45" value="1..N" style="text;html=1;align=center;verticalAlign=middle;whiteSpace=wrap;rounded=0;" vertex="1" parent="1">
          <mxGeometry x="-220" y="40" width="60" height="30" as="geometry" />
        </mxCell>
        <mxCell id="bLOG8VgDPljPzJII9fAq-46" value="1..N" style="text;html=1;align=center;verticalAlign=middle;whiteSpace=wrap;rounded=0;" vertex="1" parent="1">
          <mxGeometry x="-460" y="90" width="60" height="30" as="geometry" />
        </mxCell>
        <mxCell id="bLOG8VgDPljPzJII9fAq-47" value="1..1" style="text;html=1;align=center;verticalAlign=middle;whiteSpace=wrap;rounded=0;" vertex="1" parent="1">
          <mxGeometry x="-700" y="90" width="60" height="30" as="geometry" />
        </mxCell>
        <mxCell id="bLOG8VgDPljPzJII9fAq-48" value="&lt;h1 style=&quot;margin-top: 0px;&quot;&gt;ModÃ¨le relationnel :&lt;/h1&gt;&lt;p&gt;&lt;b&gt;Partie&lt;/b&gt;( &lt;u&gt;id&lt;/u&gt;&amp;nbsp;, codeUnique , score )&lt;br&gt;&lt;b&gt;Joueurs&lt;/b&gt;( &lt;u&gt;id&lt;/u&gt;&amp;nbsp;,&amp;nbsp; nom )&lt;br&gt;&lt;b&gt;Cartes&lt;/b&gt;( &lt;u&gt;id&lt;/u&gt;&amp;nbsp;, contenu )&lt;br&gt;&lt;b&gt;Indices&lt;/b&gt;( &lt;u&gt;id&lt;/u&gt;&amp;nbsp;, contenu, nb_mot_corres )&lt;/p&gt;&lt;p&gt;&lt;br&gt;&lt;/p&gt;" style="text;html=1;whiteSpace=wrap;overflow=hidden;rounded=0;" vertex="1" parent="1">
          <mxGeometry x="-700" y="320" width="370" height="120" as="geometry" />
        </mxCell>
      </root>
    </mxGraphModel>
  </diagram>
</mxfile>
